<svg xmlns="http://www.w3.org/2000/svg" viewBox="0 0 2048 2048" width="2048" height="2048">

  <!-- Blue background -->
  <rect width="2048" height="2048" fill="#0057B8"/>

  <!-- White C-shape with caring hand curl (from vectorized trace) -->
  <path fill="#FFFFFF" fill-rule="evenodd" d="
    M1068.500 538.020
    C 1124.056 541.292,1177.923 554.326,1226.500 576.251
    C 1238.243 581.551,1251.979 588.530,1248.996 587.680
    C 1248.168 587.444,1242.993 585.807,1237.496 584.041
    C 1217.520 577.626,1181.455 570.180,1159.000 567.837
    C 1143.150 566.182,1094.648 566.163,1082.500 567.806
    C 1055.233 571.495,1035.784 575.801,1013.102 583.173
    C 925.595 611.612,849.636 680.291,804.830 771.486
    C 787.182 807.406,776.566 839.108,767.599 882.669
    C 761.064 914.415,758.763 938.980,758.857 976.000
    C 758.957 1015.555,762.275 1042.072,771.372 1076.000
    C 786.839 1133.690,811.241 1174.631,848.994 1206.231
    C 881.425 1233.375,922.998 1250.455,967.938 1255.098
    C 982.182 1256.569,1014.479 1255.731,1029.000 1253.512
    C 1041.931 1251.536,1059.403 1246.990,1072.000 1242.323
    C 1094.263 1234.075,1114.247 1222.969,1142.712 1203.024
    C 1150.422 1197.621,1157.388 1196.563,1162.817 1199.971
    C 1171.552 1205.452,1174.157 1223.357,1168.569 1239.500
    C 1160.517 1262.764,1143.356 1284.107,1118.284 1302.040
    C 1105.378 1311.272,1090.529 1319.933,1077.852 1325.623
    C 1065.117 1331.340,1039.012 1340.133,1028.895 1342.113
    C 1016.746 1344.491,1020.050 1345.203,1041.000 1344.721
    C 1062.784 1344.220,1071.950 1342.988,1091.844 1337.892
    C 1136.733 1326.393,1180.901 1297.436,1214.465 1257.500
    C 1230.188 1238.792,1239.615 1224.787,1260.577 1189.000
    C 1274.224 1165.701,1291.298 1151.060,1313.738 1143.415
    C 1354.309 1129.592,1398.276 1145.006,1421.750 1181.282
    C 1429.950 1193.954,1434.240 1206.756,1436.034 1223.906
    C 1437.788 1240.680,1434.830 1256.565,1426.985 1272.500
    C 1414.790 1297.271,1370.605 1348.173,1335.000 1378.469
    C 1281.516 1423.979,1214.280 1463.669,1143.458 1491.539
    C 1077.782 1517.384,1029.600 1520.571,971.151 1502.934
    C 920.629 1487.690,858.709 1458.112,811.500 1426.674
    C 764.596 1395.439,713.138 1348.103,676.530 1302.518
    C 624.748 1238.036,591.324 1162.729,577.102 1078.500
    C 572.078 1048.750,570.192 1024.533,569.379 979.334
    C 568.634 937.976,570.565 795.794,572.092 779.500
    C 575.119 747.207,585.874 715.018,601.368 691.881
    C 614.985 671.546,630.168 656.353,650.392 642.825
    C 679.630 623.267,753.871 590.667,809.404 573.000
    C 891.916 546.750,990.572 533.431,1068.500 538.020

    M1155.063 597.545
    C 1240.410 605.568,1321.044 641.344,1388.701 701.206
    C 1411.192 721.106,1420.727 733.547,1427.684 752.068
    C 1442.207 790.733,1429.369 835.268,1396.509 860.213
    C 1379.539 873.096,1363.647 878.882,1342.893 879.736
    C 1328.613 880.324,1320.936 879.290,1308.472 875.102
    C 1291.676 869.458,1276.594 857.661,1262.955 839.500
    C 1249.042 820.975,1229.941 801.848,1210.661 787.136
    C 1168.292 754.807,1116.561 734.623,1064.027 729.923
    C 1047.596 728.453,1018.053 729.202,1002.000 731.495
    C 988.446 733.432,960.829 740.356,946.001 745.535
    C 918.303 755.210,889.689 771.370,864.142 791.766
    C 844.227 807.666,820.857 833.976,808.222 854.723
    C 805.319 859.489,802.753 863.580,802.520 863.813
    C 801.941 864.393,803.348 859.218,808.724 841.000
    C 819.623 804.062,840.772 761.697,863.878 730.514
    C 901.835 679.288,948.050 642.723,1004.576 619.196
    C 1034.005 606.947,1062.032 600.041,1096.000 596.668
    C 1106.098 595.665,1140.497 596.176,1155.063 597.545
  "/>

  <!-- Hot-pink heart cradled inside the C -->
  <g transform="translate(850,800) scale(4.0)">
    <path fill="#F0176A" d="M50,88 C30,72 8,56 8,36 A21,21 0,0,1 29,15 A21,21 0,0,1 50,28 A21,21 0,0,1 71,15 A21,21 0,0,1 92,36 C92,56 70,72 50,88Z"/>
  </g>

</svg>
